<?xml version="1.0" standalone="no"?>
<!DOCTYPE svg PUBLIC "-//W3C//DTD SVG 20010904//EN"
 "http://www.w3.org/TR/2001/REC-SVG-20010904/DTD/svg10.dtd">
<svg version="1.0" xmlns="http://www.w3.org/2000/svg"
 width="1956.000000pt" height="1956.000000pt" viewBox="0 0 1956.000000 1956.000000"
 preserveAspectRatio="xMidYMid meet">
<metadata>
Created by potrace 1.15, written by Peter Selinger 2001-2017
</metadata>
<g transform="translate(0.000000,1956.000000) scale(0.100000,-0.100000)"
fill="#000000" stroke="none">
<path d="M5015 14563 c-89 -11 -193 -46 -246 -83 -128 -89 -198 -180 -239
-308 l-30 -93 0 -4699 0 -4699 34 -86 c39 -97 58 -124 142 -209 71 -72 128
-115 164 -122 14 -3 56 -15 95 -26 l70 -21 4680 0 4680 0 80 27 c44 15 105 44
135 64 57 38 160 136 160 152 0 5 12 23 26 40 32 37 73 175 74 242 0 79 -38
220 -75 278 -41 64 -125 160 -140 160 -6 0 -27 14 -48 31 -23 19 -64 38 -105
49 -37 10 -80 23 -97 30 -23 9 -1048 11 -4402 11 -3635 0 -4374 3 -4383 14 -8
9 -11 397 -10 1395 1 1488 -2 1422 50 1450 11 6 73 57 139 113 65 56 165 140
222 187 56 47 185 155 285 240 100 85 224 189 274 230 51 41 145 120 210 175
65 55 160 134 210 175 51 41 158 131 240 200 81 69 176 148 210 175 69 55 228
188 442 370 110 94 143 89 188 -25 12 -30 29 -64 39 -75 24 -27 101 -159 101
-172 0 -6 9 -21 20 -35 10 -14 32 -49 48 -79 43 -80 98 -176 143 -249 22 -36
49 -84 60 -108 27 -58 89 -163 110 -187 9 -11 26 -40 38 -65 11 -25 39 -76 61
-115 22 -38 49 -89 60 -112 11 -23 25 -45 31 -48 5 -4 25 -37 44 -75 19 -38
39 -71 44 -74 5 -4 22 -30 36 -59 59 -116 81 -156 96 -174 9 -10 26 -36 37
-58 52 -103 84 -161 97 -175 8 -9 22 -34 31 -55 9 -22 26 -53 39 -70 12 -16
32 -48 44 -70 12 -22 37 -67 56 -100 19 -33 48 -88 65 -122 16 -34 35 -65 41
-68 6 -4 19 -28 30 -52 11 -25 30 -58 44 -74 13 -16 27 -39 31 -51 3 -13 16
-36 28 -53 11 -16 34 -54 49 -85 16 -30 39 -76 52 -102 14 -25 29 -49 35 -53
6 -3 21 -28 35 -55 67 -132 157 -225 280 -285 l80 -40 140 0 c134 0 143 1 181
25 21 14 52 31 68 38 87 38 213 188 257 308 11 29 24 56 29 59 5 3 16 31 25
62 9 32 25 69 35 83 9 14 23 43 30 65 7 22 25 63 41 91 16 28 29 58 29 66 0 8
14 42 31 74 16 32 39 83 50 113 10 30 25 62 33 70 8 9 22 41 31 73 9 31 22 62
30 68 8 6 23 40 35 75 12 35 27 69 35 75 8 6 21 34 31 62 9 28 29 75 45 105
16 30 29 62 29 72 0 9 12 36 26 61 14 25 33 67 41 94 8 27 25 65 38 85 13 20
27 50 31 66 4 17 22 58 41 93 18 35 33 70 33 79 0 8 13 40 29 71 41 78 101
209 101 219 0 7 35 83 111 237 16 32 29 66 29 75 0 9 16 49 35 89 83 171 104
219 110 249 3 17 13 37 20 43 8 6 21 33 31 58 9 26 31 79 49 117 78 167 96
206 140 305 26 58 58 128 71 155 13 28 24 57 24 65 0 8 15 47 34 85 19 39 50
103 70 144 20 40 36 80 36 88 0 8 16 44 35 80 19 36 35 74 35 83 0 10 11 33
24 52 13 20 29 53 36 74 11 37 49 120 110 244 15 30 33 71 39 90 16 50 66 107
100 115 16 3 43 17 61 30 18 14 55 32 81 40 26 9 53 22 59 30 7 8 37 24 67 35
31 11 67 29 80 40 13 10 41 24 61 31 20 6 51 22 67 34 17 13 48 28 68 33 20 6
49 19 64 30 15 10 50 29 78 41 27 12 56 28 65 36 8 7 38 21 65 30 28 10 57 24
66 32 9 8 39 23 67 33 27 11 67 31 87 45 21 14 45 25 54 25 9 0 32 9 51 20 19
11 59 31 88 45 29 13 64 33 78 44 14 11 42 25 62 32 20 6 51 22 67 34 17 13
48 28 68 33 20 6 50 20 66 31 16 12 48 28 71 36 23 8 54 23 69 34 15 11 51 31
81 45 92 44 192 125 226 185 8 14 26 41 39 59 34 47 69 208 62 286 -11 125
-62 228 -163 330 -93 93 -115 106 -242 142 -127 37 -123 37 -266 -3 -84 -24
-259 -103 -271 -122 -3 -5 -27 -17 -55 -26 -27 -9 -60 -25 -74 -36 -13 -11
-43 -26 -66 -34 -23 -8 -54 -24 -70 -35 -16 -11 -47 -27 -70 -35 -23 -8 -54
-24 -70 -35 -16 -11 -47 -27 -70 -35 -23 -8 -54 -24 -70 -35 -16 -11 -48 -27
-71 -35 -24 -9 -50 -22 -59 -29 -8 -8 -35 -22 -60 -32 -25 -10 -65 -31 -89
-46 -25 -15 -52 -28 -62 -28 -9 0 -34 -12 -55 -26 -21 -15 -59 -34 -84 -42
-25 -8 -56 -22 -70 -31 -14 -10 -74 -41 -135 -71 -60 -30 -122 -62 -137 -72
-15 -10 -45 -25 -68 -33 -23 -8 -54 -24 -70 -35 -16 -11 -48 -27 -71 -35 -24
-9 -50 -22 -59 -29 -8 -8 -40 -24 -70 -36 -30 -12 -62 -28 -70 -35 -8 -7 -35
-21 -60 -31 -25 -10 -61 -30 -80 -46 -19 -15 -39 -28 -45 -28 -14 0 -105 -96
-137 -145 -15 -22 -34 -60 -44 -85 -10 -25 -25 -56 -34 -70 -10 -14 -25 -50
-34 -81 -9 -31 -22 -62 -30 -68 -8 -7 -20 -29 -26 -49 -10 -34 -28 -74 -115
-257 -60 -127 -105 -231 -105 -245 0 -8 -14 -37 -30 -65 -16 -27 -30 -57 -30
-66 0 -9 -16 -46 -35 -82 -19 -36 -35 -71 -35 -78 0 -13 -58 -139 -111 -241
-16 -31 -29 -62 -29 -69 0 -12 -24 -64 -105 -234 -52 -108 -105 -230 -105
-240 0 -6 -16 -41 -35 -79 -19 -39 -35 -76 -35 -83 0 -7 -13 -37 -30 -66 -16
-30 -30 -60 -30 -69 0 -8 -15 -44 -34 -79 -18 -35 -36 -76 -40 -91 -3 -16 -20
-49 -36 -75 -17 -26 -30 -55 -30 -64 0 -9 -13 -42 -29 -72 -16 -30 -36 -77
-45 -105 -10 -28 -23 -56 -31 -62 -8 -6 -19 -28 -26 -48 -6 -20 -24 -62 -40
-92 -15 -30 -31 -68 -35 -85 -3 -16 -17 -49 -31 -73 -13 -24 -33 -68 -44 -99
-10 -31 -25 -64 -33 -72 -8 -9 -22 -41 -31 -73 -9 -31 -23 -62 -31 -68 -8 -7
-22 -38 -30 -69 -9 -30 -27 -71 -40 -91 -12 -19 -28 -55 -34 -80 -15 -57 -26
-70 -60 -70 -23 0 -31 7 -45 43 -9 23 -23 49 -31 58 -8 9 -29 44 -47 78 -61
118 -72 138 -98 172 -14 19 -30 45 -34 59 -4 14 -15 36 -25 50 -9 14 -41 70
-70 125 -29 55 -63 112 -75 126 -12 15 -28 42 -35 60 -7 19 -23 47 -34 64 -26
36 -68 113 -100 180 -13 28 -33 58 -44 69 -12 10 -24 31 -27 47 -4 16 -17 42
-29 57 -12 15 -37 54 -55 87 -18 33 -49 89 -68 125 -20 36 -43 79 -51 95 -8
17 -23 39 -33 51 -19 20 -58 88 -102 179 -14 28 -48 88 -77 135 -29 47 -61
104 -70 126 -10 23 -23 45 -30 49 -6 4 -22 30 -35 58 -14 29 -42 81 -64 117
-60 98 -101 168 -136 235 -70 130 -87 159 -116 194 -16 19 -29 39 -29 44 0 15
-91 111 -119 126 -14 8 -40 26 -57 41 -40 34 -201 74 -277 68 -83 -7 -202 -45
-252 -80 -42 -32 -264 -212 -470 -383 -53 -44 -113 -93 -135 -110 -21 -16 -75
-61 -120 -100 -130 -111 -289 -243 -389 -325 -51 -41 -123 -102 -160 -135 -38
-33 -93 -80 -122 -103 -70 -57 -117 -96 -254 -212 -62 -52 -154 -129 -205
-170 -51 -41 -107 -88 -125 -105 -18 -16 -50 -44 -71 -62 -22 -17 -63 -52 -92
-77 -69 -60 -98 -78 -117 -74 -14 3 -16 213 -18 2288 l-2 2285 -27 79 c-14 43
-35 88 -46 100 -11 11 -26 33 -33 47 -22 41 -158 157 -203 173 -140 49 -206
64 -251 59z"/>
</g>
</svg>
