<?xml version="1.0" standalone="no"?>
<!DOCTYPE svg PUBLIC "-//W3C//DTD SVG 20010904//EN"
 "http://www.w3.org/TR/2001/REC-SVG-20010904/DTD/svg10.dtd">
<svg version="1.0" xmlns="http://www.w3.org/2000/svg"
 width="1956.000000pt" height="1956.000000pt" viewBox="0 0 1956.000000 1956.000000"
 preserveAspectRatio="xMidYMid meet">
<metadata>
Created by potrace 1.15, written by Peter Selinger 2001-2017
</metadata>
<g transform="translate(0.000000,1956.000000) scale(0.100000,-0.100000)"
fill="#000000" stroke="none">
<path d="M15250 16310 c-30 -12 -76 -27 -102 -34 -25 -8 -63 -23 -85 -34 -74
-39 -193 -92 -206 -92 -8 0 -31 -11 -51 -25 -20 -14 -45 -25 -55 -25 -10 0
-45 -13 -77 -29 -32 -15 -88 -42 -124 -60 -36 -17 -71 -31 -79 -31 -7 0 -30
-9 -50 -20 -20 -10 -54 -24 -76 -29 -22 -6 -56 -22 -75 -36 -19 -14 -40 -25
-48 -25 -8 0 -31 -9 -51 -20 -20 -10 -54 -24 -76 -29 -22 -6 -56 -21 -75 -33
-52 -33 -145 -76 -189 -88 -21 -5 -54 -21 -73 -33 -19 -13 -49 -27 -67 -30
-18 -4 -45 -16 -61 -27 -15 -11 -35 -20 -43 -20 -8 0 -46 -16 -83 -35 -38 -19
-75 -35 -83 -35 -7 0 -34 -11 -60 -24 -25 -14 -84 -41 -131 -61 -47 -19 -110
-47 -140 -62 -100 -47 -154 -71 -255 -113 -55 -23 -113 -50 -130 -60 -16 -10
-46 -21 -65 -25 -19 -4 -55 -18 -80 -31 -25 -13 -50 -24 -56 -24 -6 0 -26 -10
-45 -23 -32 -22 -72 -38 -179 -74 -54 -18 -82 -31 -179 -83 -40 -22 -92 -45
-115 -51 -22 -6 -61 -22 -86 -35 -25 -13 -50 -24 -56 -24 -6 0 -27 -11 -47
-24 -20 -14 -52 -28 -72 -32 -20 -3 -51 -17 -71 -30 -19 -13 -43 -24 -52 -24
-18 0 -62 -19 -197 -86 -38 -19 -77 -34 -86 -34 -9 0 -33 -11 -53 -25 -20 -14
-41 -25 -46 -25 -4 0 -41 -16 -81 -35 -41 -19 -80 -35 -87 -35 -8 0 -35 -11
-61 -24 -86 -44 -158 -76 -172 -76 -8 0 -33 -11 -57 -25 -24 -13 -60 -29 -81
-35 -21 -5 -55 -21 -75 -35 -20 -14 -41 -25 -46 -25 -4 0 -37 -13 -72 -30 -34
-16 -70 -30 -79 -30 -9 0 -33 -11 -53 -25 -20 -14 -49 -28 -64 -31 -15 -4 -45
-17 -68 -30 -22 -13 -46 -24 -53 -24 -7 0 -46 -16 -87 -35 -40 -19 -80 -35
-87 -35 -8 0 -31 -11 -51 -25 -20 -14 -41 -25 -47 -25 -5 0 -31 -11 -57 -24
-26 -13 -61 -27 -79 -30 -18 -4 -48 -18 -68 -32 -20 -13 -48 -27 -63 -30 -15
-4 -38 -13 -52 -22 -14 -9 -52 -26 -85 -38 -131 -48 -171 -65 -195 -82 -14
-11 -43 -25 -65 -32 -22 -7 -56 -20 -75 -30 -61 -31 -157 -70 -172 -70 -8 0
-34 -13 -59 -29 -24 -16 -60 -32 -79 -36 -19 -4 -55 -17 -80 -30 -127 -63
-197 -95 -211 -95 -9 0 -33 -11 -53 -25 -20 -14 -42 -25 -48 -25 -5 0 -31 -11
-57 -24 -54 -29 -159 -70 -216 -85 -22 -6 -56 -22 -75 -36 -19 -14 -41 -25
-51 -25 -9 0 -32 -11 -52 -24 -20 -14 -52 -28 -71 -32 -20 -3 -56 -19 -81 -35
-25 -16 -51 -29 -58 -29 -7 0 -31 -11 -55 -25 -23 -13 -58 -27 -78 -31 -19 -3
-50 -17 -69 -30 -19 -12 -50 -26 -69 -29 -18 -4 -49 -16 -67 -28 -19 -12 -47
-26 -64 -33 -115 -45 -201 -83 -235 -103 -8 -5 -44 -21 -80 -36 -36 -15 -87
-37 -115 -50 -27 -13 -68 -28 -90 -34 -22 -6 -56 -21 -75 -33 -38 -24 -58 -33
-165 -72 -38 -14 -81 -34 -95 -44 -14 -10 -38 -23 -55 -29 -16 -7 -68 -28
-115 -48 -47 -20 -108 -44 -137 -54 -28 -10 -64 -26 -80 -37 -26 -18 -52 -29
-193 -83 -30 -12 -67 -30 -82 -41 -15 -11 -33 -20 -40 -20 -7 0 -31 -10 -53
-21 -22 -12 -62 -30 -90 -39 -27 -9 -68 -27 -90 -39 -22 -11 -47 -21 -55 -21
-8 0 -31 -10 -50 -22 -33 -21 -63 -34 -197 -86 -29 -11 -64 -29 -79 -41 -15
-12 -33 -21 -41 -21 -8 0 -47 -16 -86 -35 -39 -19 -77 -35 -85 -35 -8 0 -31
-9 -51 -19 -71 -37 -147 -70 -187 -80 -23 -6 -52 -19 -65 -30 -13 -10 -35 -22
-49 -26 -14 -4 -49 -20 -77 -36 -29 -16 -59 -29 -66 -29 -8 0 -36 -11 -63 -25
-27 -14 -65 -30 -84 -36 -19 -6 -51 -19 -70 -29 -83 -42 -148 -70 -186 -80
-23 -5 -52 -18 -65 -29 -13 -10 -35 -22 -49 -26 -14 -4 -44 -17 -67 -30 -23
-13 -57 -26 -75 -30 -18 -4 -53 -18 -78 -31 -25 -13 -52 -24 -60 -24 -8 0 -31
-10 -50 -22 -43 -27 -129 -65 -192 -85 -26 -8 -63 -25 -83 -39 -20 -13 -41
-24 -47 -24 -5 0 -31 -11 -57 -25 -25 -13 -65 -29 -88 -35 -23 -6 -55 -22 -71
-35 -17 -14 -38 -25 -47 -25 -10 0 -41 -11 -69 -24 -28 -13 -70 -32 -94 -42
-24 -10 -67 -33 -95 -51 -59 -38 -248 -239 -274 -292 -16 -31 -18 -71 -21
-286 -5 -329 -5 -327 109 -460 99 -116 207 -214 259 -235 19 -7 49 -24 65 -36
17 -12 55 -27 85 -34 30 -7 71 -21 90 -31 20 -9 54 -21 75 -24 22 -4 65 -18
97 -31 31 -13 76 -27 99 -30 24 -4 57 -15 74 -25 16 -9 55 -22 85 -29 30 -7
72 -21 92 -31 21 -11 64 -25 96 -33 32 -7 67 -18 78 -24 11 -6 49 -18 84 -27
36 -9 83 -24 105 -34 22 -10 56 -22 75 -26 19 -4 60 -18 90 -30 30 -13 73 -26
95 -30 22 -4 57 -16 77 -26 21 -11 61 -24 90 -30 29 -6 70 -20 90 -30 21 -11
64 -25 95 -33 32 -7 73 -20 90 -29 17 -9 50 -19 74 -23 24 -4 58 -14 74 -24
17 -10 55 -23 85 -30 30 -7 80 -23 110 -35 30 -13 73 -26 95 -30 22 -4 50 -13
61 -21 12 -7 49 -20 82 -29 34 -8 81 -24 106 -35 25 -10 62 -22 83 -26 21 -4
54 -14 73 -24 19 -10 60 -23 90 -30 30 -7 72 -21 92 -31 21 -11 63 -26 95 -34
32 -8 90 -26 128 -39 39 -14 79 -26 89 -26 11 0 27 -7 36 -15 9 -9 46 -21 82
-29 35 -7 78 -21 95 -30 18 -9 56 -21 85 -27 29 -6 61 -16 71 -21 16 -8 17
-93 17 -1556 0 -1489 1 -1552 20 -1667 21 -133 40 -194 70 -232 11 -14 20 -33
20 -41 0 -24 69 -122 125 -177 54 -54 183 -155 197 -155 5 0 25 -11 46 -24 20
-14 62 -31 92 -40 30 -8 86 -24 125 -36 53 -15 98 -20 192 -20 117 0 129 2
247 41 69 22 135 48 148 57 13 10 34 23 48 29 65 28 238 201 323 323 34 49
236 344 302 442 27 40 72 105 101 143 28 39 54 77 57 85 3 8 28 43 55 77 28
34 58 75 66 92 18 35 48 80 89 132 15 20 27 39 27 42 0 4 27 42 60 86 33 44
60 83 60 86 0 4 11 21 25 39 14 18 25 37 25 41 0 5 11 20 24 34 25 28 62 79
192 271 46 69 93 136 103 150 10 14 36 51 57 82 21 32 48 71 60 87 l21 30 79
-65 c43 -36 110 -93 148 -127 106 -94 247 -216 318 -274 35 -28 90 -77 123
-108 33 -31 107 -95 164 -143 101 -85 301 -256 411 -353 77 -67 481 -415 544
-467 28 -24 80 -70 116 -102 36 -31 81 -70 100 -86 95 -78 257 -218 270 -233
8 -9 26 -24 39 -33 14 -10 43 -34 65 -55 63 -58 174 -153 246 -210 36 -28 79
-66 95 -83 17 -18 48 -46 70 -62 22 -16 65 -53 95 -83 107 -102 263 -209 338
-231 26 -7 78 -22 117 -34 96 -28 234 -28 313 1 31 11 79 27 105 34 27 7 63
24 80 37 18 13 43 29 57 35 40 18 142 110 173 155 15 24 35 50 43 59 27 30 91
194 103 264 7 39 16 93 22 120 6 28 19 95 30 150 12 55 31 150 44 210 13 61
27 134 30 164 3 29 17 94 30 145 14 50 28 120 31 156 3 36 17 100 30 143 13
43 24 97 24 121 0 23 9 77 20 120 12 44 27 120 35 170 7 50 25 135 39 190 14
54 26 114 26 132 0 19 9 66 20 105 10 39 24 107 31 152 6 45 22 125 35 177 13
52 24 113 24 135 0 23 9 67 21 99 11 32 25 95 30 140 6 45 21 126 34 181 13
55 28 129 33 165 5 36 21 115 36 175 14 61 26 126 26 146 0 20 9 62 21 95 11
32 24 98 29 145 4 47 16 108 25 134 9 27 22 94 30 149 8 56 24 132 34 170 11
38 23 96 27 130 3 33 14 93 25 132 10 38 26 115 34 170 8 54 24 133 35 174 11
41 20 93 21 115 0 22 10 66 20 99 11 32 27 106 35 165 8 58 21 128 30 156 8
27 19 87 25 133 5 45 20 120 33 165 13 45 27 114 31 152 4 39 18 108 31 154
13 46 24 105 24 131 0 26 9 76 20 111 12 35 26 100 31 144 6 44 21 125 35 180
14 55 29 129 34 165 5 36 18 101 29 145 12 44 21 94 21 110 0 17 14 86 31 155
17 69 31 145 31 169 0 25 9 67 20 95 11 28 26 94 33 146 7 52 22 131 33 175
11 44 23 112 27 150 4 39 16 96 26 128 11 32 26 104 34 160 8 56 21 125 30
152 9 28 20 87 25 133 5 46 16 106 25 133 9 27 23 91 30 142 7 51 22 126 34
167 11 42 25 112 31 155 5 44 19 112 29 150 11 39 20 86 20 105 1 19 14 89 30
155 16 66 32 145 36 175 4 30 15 84 26 120 10 36 23 101 28 145 5 44 16 105
25 135 9 30 21 95 27 144 6 49 20 117 31 150 10 34 25 104 33 156 7 52 22 131
34 174 12 44 21 98 21 122 0 23 9 70 19 105 11 35 22 79 26 98 4 18 17 50 29
70 20 34 21 48 21 316 0 330 3 318 -111 417 -110 97 -204 139 -319 145 -63 3
-92 -1 -135 -17z m-2485 -2146 c-38 -36 -81 -72 -95 -82 -14 -9 -52 -39 -85
-67 -33 -28 -70 -57 -82 -65 -11 -8 -81 -65 -155 -127 -253 -212 -321 -268
-360 -298 -21 -16 -105 -86 -186 -154 -81 -68 -163 -135 -182 -150 -19 -14
-94 -75 -166 -136 -72 -60 -161 -135 -199 -165 -37 -30 -114 -93 -170 -140
-57 -47 -138 -112 -180 -145 -43 -33 -94 -75 -114 -94 -20 -19 -83 -72 -141
-119 -58 -47 -134 -110 -170 -141 -36 -31 -85 -72 -110 -91 -25 -19 -104 -84
-177 -145 -73 -60 -180 -148 -239 -195 -58 -47 -134 -110 -169 -140 -69 -59
-289 -241 -450 -370 -55 -44 -120 -97 -144 -118 -42 -34 -164 -134 -455 -370
-66 -54 -142 -116 -170 -139 -93 -76 -250 -204 -316 -258 -36 -29 -159 -130
-275 -225 -115 -94 -253 -206 -304 -248 -52 -42 -149 -122 -215 -177 -67 -55
-133 -109 -147 -120 -26 -20 -71 -57 -269 -220 -58 -48 -135 -111 -173 -141
l-67 -55 -53 25 c-28 14 -70 28 -92 32 -22 4 -56 14 -75 24 -19 10 -60 23 -90
30 -30 7 -71 21 -92 31 -20 10 -56 21 -80 25 -23 4 -63 17 -89 30 -25 12 -63
26 -85 30 -21 3 -55 14 -74 24 -19 10 -60 23 -90 30 -30 7 -75 23 -101 36 -25
12 -63 25 -85 29 -21 3 -59 15 -84 25 -58 24 -158 57 -242 80 -36 10 -84 28
-106 39 -22 11 -60 23 -84 27 -23 4 -59 15 -78 24 -19 9 -57 22 -84 29 -27 7
-65 20 -85 30 -20 10 -61 24 -91 31 -30 7 -71 21 -92 31 -20 10 -56 21 -80 25
-23 4 -59 15 -79 25 -20 10 -58 23 -85 30 -27 7 -66 20 -86 31 -21 10 -64 24
-95 32 -32 7 -72 20 -89 29 -16 8 -48 19 -69 22 -22 4 -56 15 -75 25 -19 10
-60 23 -90 30 -30 7 -71 21 -91 31 -20 10 -58 23 -85 29 -27 7 -62 16 -77 22
l-28 11 33 20 c18 11 47 24 64 29 18 4 48 19 68 33 20 14 42 25 48 25 11 0
109 41 203 85 28 13 61 26 75 30 14 4 45 18 70 30 25 13 79 37 120 55 41 17
102 44 135 60 33 15 71 31 85 35 14 4 41 15 60 25 19 10 69 33 110 50 41 17
102 44 135 60 33 15 71 31 85 35 14 4 43 18 65 30 22 12 53 26 69 29 17 4 42
16 56 26 14 10 39 22 56 26 16 3 49 17 74 29 25 13 79 38 120 55 150 64 216
92 265 115 28 13 84 37 125 55 41 17 102 44 135 60 33 15 71 31 85 35 14 4 45
18 70 30 102 51 178 85 191 85 8 1 39 14 69 30 30 17 61 30 68 30 7 0 34 11
60 25 26 14 54 25 62 25 9 0 37 14 63 30 26 17 53 30 60 30 7 0 39 13 72 30
33 16 66 30 73 30 7 0 38 14 69 30 31 17 64 30 73 30 9 0 34 11 54 25 20 14
42 25 49 25 7 0 39 13 72 30 33 16 66 30 74 30 7 0 39 13 70 29 90 45 164 79
191 86 14 4 43 17 65 30 22 12 54 26 72 30 18 3 48 17 68 31 20 13 41 24 46
24 12 0 127 48 214 88 150 71 171 81 195 87 14 4 45 18 70 31 25 13 51 24 59
24 7 0 39 13 70 29 101 51 166 81 175 81 14 0 141 56 326 143 30 14 66 28 80
32 14 4 49 20 77 36 29 16 58 29 64 29 11 0 37 11 185 81 34 16 67 29 74 29 7
0 38 13 69 29 31 16 85 41 121 56 36 15 92 39 125 55 33 16 71 31 85 35 14 4
45 18 70 30 25 13 74 35 110 50 36 16 97 43 137 61 39 19 77 34 83 34 7 0 33
11 59 24 94 48 178 86 192 86 8 1 39 14 69 30 30 17 61 30 69 30 7 0 34 11 60
24 101 51 199 96 211 96 6 0 33 11 59 24 60 31 157 72 203 86 20 6 47 19 60
30 13 10 42 23 63 29 22 6 55 20 73 31 18 11 38 20 46 20 7 0 40 13 72 28 163
79 192 92 205 92 8 0 30 10 49 21 19 12 55 28 81 35 25 8 57 22 70 33 13 10
35 21 49 25 30 8 122 47 206 87 34 16 68 29 76 29 8 0 32 11 52 25 20 14 49
28 64 31 15 4 47 17 72 30 25 13 51 24 59 24 8 0 38 14 68 30 29 17 58 30 64
30 12 0 95 37 189 85 25 12 47 23 50 23 3 1 -26 -28 -65 -64z m1671 -577 c-14
-56 -28 -129 -32 -162 -3 -33 -14 -85 -24 -115 -10 -30 -23 -98 -29 -150 -6
-52 -22 -135 -36 -185 -14 -49 -25 -107 -25 -128 0 -20 -9 -70 -20 -110 -12
-39 -25 -107 -31 -150 -5 -43 -21 -119 -34 -169 -13 -50 -27 -118 -31 -152 -3
-34 -14 -88 -24 -121 -10 -33 -21 -92 -25 -130 -4 -39 -18 -113 -31 -166 -13
-52 -26 -122 -30 -155 -3 -32 -17 -97 -30 -144 -13 -47 -28 -122 -33 -168 -6
-46 -17 -103 -25 -127 -9 -24 -20 -83 -26 -132 -6 -48 -20 -117 -31 -153 -11
-36 -23 -94 -26 -130 -3 -36 -18 -116 -34 -178 -16 -62 -29 -128 -29 -146 0
-17 -11 -74 -24 -126 -14 -52 -28 -124 -31 -160 -4 -36 -16 -92 -27 -125 -10
-33 -24 -98 -29 -145 -6 -47 -21 -130 -35 -184 -13 -54 -24 -113 -24 -131 0
-17 -9 -67 -21 -111 -12 -43 -27 -117 -34 -164 -7 -47 -22 -121 -34 -165 -12
-43 -26 -115 -31 -160 -5 -44 -19 -111 -30 -150 -11 -38 -20 -88 -20 -110 0
-22 -14 -89 -30 -150 -17 -60 -30 -131 -30 -156 0 -25 -11 -82 -25 -127 -13
-45 -27 -110 -30 -145 -4 -34 -17 -105 -30 -157 -13 -52 -26 -123 -30 -158 -3
-34 -15 -91 -26 -125 -11 -34 -26 -107 -34 -162 -7 -55 -23 -136 -34 -179 -12
-44 -21 -95 -21 -114 0 -19 -11 -75 -24 -126 -13 -50 -27 -118 -31 -151 -4
-33 -18 -103 -31 -155 -14 -52 -27 -122 -30 -155 -3 -33 -14 -85 -24 -115 -10
-31 -22 -85 -25 -120 -4 -36 -20 -119 -36 -184 -16 -66 -29 -139 -29 -162 0
-23 -9 -69 -20 -103 -11 -35 -25 -102 -31 -149 -7 -48 -22 -130 -35 -182 -13
-52 -26 -120 -29 -150 -4 -30 -18 -95 -30 -145 -13 -49 -27 -120 -31 -157 -3
-38 -10 -68 -14 -68 -7 0 -215 176 -335 284 -38 34 -185 161 -325 280 -140
120 -358 306 -483 415 -125 108 -269 231 -320 274 -51 43 -110 95 -132 115
-22 20 -204 177 -405 347 -200 171 -396 338 -434 373 -39 34 -120 104 -180
155 -60 50 -127 108 -149 128 l-40 35 27 40 c51 77 60 89 86 119 14 17 39 50
55 75 16 25 50 71 75 104 79 103 99 130 116 161 9 17 38 55 64 85 26 30 55 69
64 85 9 17 32 50 51 75 19 25 46 61 60 80 37 51 65 88 115 154 25 32 61 82 80
110 19 29 58 81 86 117 28 36 57 76 64 89 7 14 24 39 37 55 13 17 45 57 72 91
27 33 56 73 65 90 17 29 24 40 121 168 28 36 75 100 105 141 30 42 67 92 83
112 15 20 27 39 27 44 0 4 24 36 53 71 30 35 61 77 71 93 9 17 31 49 49 72 35
46 57 76 262 353 14 19 42 58 62 85 20 28 58 77 83 110 26 33 53 71 60 85 7
14 31 48 54 75 23 28 59 77 81 110 22 33 64 88 92 123 29 34 53 66 53 70 0 8
61 92 221 302 27 36 70 96 96 135 26 38 67 96 92 128 51 66 77 101 105 143 11
16 41 54 66 84 26 30 55 71 65 90 10 19 36 57 58 83 50 61 82 104 103 142 9
17 37 54 62 84 55 65 86 106 108 146 9 17 35 53 59 80 23 28 59 77 80 110 20
33 61 87 91 121 29 34 59 74 66 90 6 16 32 53 57 83 55 66 85 107 107 146 9
17 38 55 63 85 26 30 64 82 86 115 22 33 60 85 86 115 25 30 52 66 59 80 7 14
32 49 54 79 23 30 53 70 68 90 15 20 35 50 44 66 9 17 40 58 68 92 55 67 85
108 119 163 32 53 33 17 3 -103z m-1831 -784 c-10 -16 -37 -50 -60 -78 -23
-27 -48 -61 -55 -75 -14 -28 -39 -62 -85 -118 -17 -20 -40 -50 -50 -66 -11
-16 -30 -43 -43 -60 -12 -17 -33 -47 -47 -66 -14 -19 -41 -55 -60 -80 -19 -25
-42 -58 -51 -75 -9 -16 -42 -59 -73 -96 -31 -37 -67 -86 -81 -110 -14 -23 -41
-62 -60 -85 -55 -68 -76 -97 -90 -124 -7 -14 -34 -50 -59 -80 -26 -30 -64 -82
-86 -115 -21 -33 -61 -88 -89 -122 -28 -34 -68 -88 -89 -120 -20 -32 -53 -78
-72 -103 -19 -25 -53 -72 -76 -105 -23 -33 -53 -73 -66 -90 -78 -97 -93 -118
-93 -125 0 -5 -22 -35 -49 -68 -27 -32 -56 -71 -65 -88 -23 -40 -58 -87 -109
-148 -24 -28 -51 -64 -60 -81 -9 -16 -34 -52 -56 -80 -21 -27 -61 -81 -87
-120 -27 -38 -69 -96 -94 -127 -25 -31 -55 -72 -68 -90 -63 -92 -97 -139 -153
-213 -16 -22 -41 -56 -54 -75 -14 -19 -41 -55 -60 -80 -20 -25 -43 -58 -53
-74 -9 -16 -39 -57 -67 -92 -27 -35 -60 -78 -73 -96 -70 -102 -97 -140 -153
-213 -16 -22 -41 -56 -54 -75 -14 -19 -41 -55 -60 -80 -19 -25 -53 -72 -76
-105 -23 -33 -54 -74 -68 -92 -51 -63 -76 -97 -96 -129 -25 -40 -66 -97 -110
-154 -19 -25 -46 -61 -60 -80 -13 -19 -38 -53 -54 -75 -17 -22 -52 -71 -78
-110 -26 -38 -66 -92 -88 -120 -23 -27 -61 -79 -85 -115 -24 -36 -55 -79 -69
-97 -14 -17 -37 -48 -51 -68 -14 -20 -38 -54 -55 -75 -16 -21 -46 -61 -65 -89
-19 -28 -46 -67 -60 -86 -14 -19 -36 -51 -50 -70 -14 -20 -37 -52 -53 -70 -15
-18 -34 -48 -42 -66 -9 -19 -31 -54 -50 -79 -19 -25 -44 -61 -55 -80 -11 -19
-36 -55 -55 -80 -35 -45 -41 -53 -102 -145 -18 -27 -42 -61 -52 -75 -10 -14
-40 -56 -65 -95 -26 -38 -64 -93 -84 -122 -20 -29 -45 -65 -54 -80 -10 -15
-33 -48 -53 -73 -19 -25 -44 -61 -55 -80 -11 -19 -36 -55 -55 -80 -37 -48 -42
-56 -114 -163 -25 -38 -57 -85 -71 -104 -14 -20 -36 -53 -50 -73 -14 -21 -51
-75 -83 -121 -32 -46 -78 -113 -102 -149 -25 -36 -66 -96 -92 -134 -27 -37
-54 -78 -62 -90 -8 -11 -31 -45 -50 -75 l-36 -53 -3 1483 -2 1484 22 17 c13 9
165 134 338 277 325 269 386 318 579 474 63 51 144 119 180 152 59 54 195 168
926 775 116 96 233 193 260 214 28 22 106 88 175 146 69 59 132 111 141 116 9
5 76 59 148 119 72 61 183 153 247 205 64 52 133 110 153 129 20 19 47 41 62
50 31 20 137 106 229 186 37 33 116 98 175 145 59 47 166 135 238 195 73 61
145 119 159 130 15 11 81 65 148 120 66 55 178 147 249 205 462 379 699 574
751 619 43 38 47 38 25 4z"/>
</g>
</svg>
