<?xml version="1.0" standalone="no"?>
<!DOCTYPE svg PUBLIC "-//W3C//DTD SVG 20010904//EN"
 "http://www.w3.org/TR/2001/REC-SVG-20010904/DTD/svg10.dtd">
<svg version="1.0" xmlns="http://www.w3.org/2000/svg"
 width="1956.000000pt" height="1956.000000pt" viewBox="0 0 1956.000000 1956.000000"
 preserveAspectRatio="xMidYMid meet">
<metadata>
Created by potrace 1.15, written by Peter Selinger 2001-2017
</metadata>
<g transform="translate(0.000000,1956.000000) scale(0.100000,-0.100000)"
fill="#000000" stroke="none">
<path d="M9550 16520 c-8 -5 -46 -18 -85 -30 -65 -20 -166 -59 -207 -81 -10
-5 -23 -9 -31 -9 -7 0 -57 -29 -112 -65 -54 -36 -101 -65 -103 -65 -26 0 -269
-241 -288 -285 -7 -17 -22 -39 -34 -50 -22 -20 -100 -165 -100 -185 0 -27
-140 -307 -190 -381 -22 -32 -40 -62 -40 -66 0 -4 -17 -27 -38 -52 -21 -25
-53 -68 -72 -96 -47 -69 -241 -260 -309 -303 -31 -20 -60 -41 -66 -48 -22 -29
-257 -124 -306 -124 -15 0 -43 -7 -63 -15 -30 -13 -74 -15 -239 -12 -111 2
-233 9 -272 16 -186 35 -391 88 -457 119 -60 28 -177 73 -213 83 -16 4 -64 16
-105 28 -83 22 -325 43 -352 29 -9 -4 -38 -8 -65 -8 -48 -1 -94 -9 -168 -30
-22 -6 -60 -15 -85 -19 -58 -10 -120 -36 -255 -107 -229 -120 -388 -281 -508
-517 -79 -154 -89 -179 -98 -237 -3 -25 -14 -70 -24 -100 -36 -118 -43 -443
-11 -550 7 -25 19 -65 26 -90 7 -25 34 -101 62 -170 27 -69 54 -138 58 -155 5
-16 15 -55 24 -85 16 -56 42 -178 70 -330 22 -116 22 -416 1 -467 -8 -19 -15
-50 -15 -68 0 -55 -85 -269 -122 -305 -8 -9 -27 -36 -43 -60 -57 -92 -180
-215 -351 -354 -63 -52 -213 -146 -313 -196 -114 -58 -227 -110 -239 -110 -20
0 -168 -79 -187 -100 -11 -12 -33 -27 -50 -34 -28 -13 -170 -145 -225 -211
-76 -90 -210 -312 -210 -347 0 -5 -9 -26 -20 -48 -24 -48 -70 -186 -70 -211 0
-11 -4 -19 -10 -19 -6 0 -10 -80 -10 -220 0 -140 4 -220 10 -220 6 0 10 -9 10
-20 0 -24 43 -158 64 -198 9 -17 23 -52 32 -77 20 -61 121 -226 191 -315 49
-62 203 -210 236 -227 18 -9 50 -31 71 -49 22 -19 44 -34 48 -34 5 0 33 -11
61 -24 29 -13 86 -38 127 -56 128 -56 273 -131 321 -166 26 -19 50 -34 55 -34
4 0 28 -17 53 -38 25 -21 64 -50 86 -64 60 -38 271 -251 312 -316 20 -31 40
-59 45 -63 28 -19 128 -260 128 -309 0 -15 7 -44 15 -63 21 -50 21 -371 1
-477 -8 -41 -22 -113 -31 -160 -9 -47 -22 -105 -29 -130 -8 -25 -19 -65 -26
-90 -10 -38 -78 -212 -110 -285 -5 -11 -11 -31 -13 -45 -3 -14 -12 -50 -21
-80 -9 -30 -21 -93 -27 -140 -11 -93 -3 -351 12 -403 24 -77 39 -140 39 -161
0 -21 20 -68 103 -236 74 -151 214 -316 351 -414 68 -48 211 -125 284 -152 26
-10 53 -22 60 -28 8 -5 35 -13 60 -17 26 -4 72 -14 102 -23 148 -46 439 -45
590 0 30 9 66 18 80 21 14 2 34 8 45 13 214 94 415 153 665 196 110 19 433 15
510 -6 130 -35 162 -46 235 -82 44 -21 113 -61 153 -89 82 -56 291 -262 330
-324 14 -22 43 -61 64 -86 21 -25 38 -49 38 -53 0 -5 15 -29 34 -55 43 -59
196 -363 196 -390 0 -22 63 -142 94 -180 20 -24 36 -48 36 -55 0 -14 164 -184
230 -239 25 -21 79 -58 120 -83 41 -26 87 -55 101 -65 33 -22 176 -81 284
-115 44 -14 88 -30 97 -35 23 -12 433 -12 456 0 9 5 55 21 101 36 47 14 101
35 122 46 21 10 44 19 51 19 21 0 144 67 203 110 30 22 57 40 61 40 29 0 279
247 300 296 7 17 20 37 29 44 17 14 95 164 95 182 0 28 150 325 197 389 18 26
33 50 33 54 0 4 22 35 48 69 26 33 55 72 64 86 8 14 67 77 131 141 103 105
167 156 303 241 49 31 209 88 246 88 14 0 42 7 61 15 49 20 384 21 477 1 36
-8 105 -21 153 -30 49 -9 108 -23 130 -30 23 -7 67 -19 97 -26 45 -11 154 -53
285 -110 11 -5 31 -11 45 -13 14 -3 50 -12 80 -21 30 -9 93 -21 140 -27 102
-12 358 -3 415 16 22 7 65 18 95 25 94 20 121 30 261 100 189 93 335 214 446
369 51 71 163 283 163 309 0 9 7 26 15 36 8 11 15 35 15 52 0 18 4 43 9 56 36
95 38 111 46 275 7 147 -4 272 -31 363 -9 30 -18 66 -21 80 -2 14 -8 34 -13
45 -104 238 -139 355 -194 656 -22 119 -22 434 -1 486 8 19 15 48 15 62 0 54
99 301 121 301 4 0 22 23 39 52 60 96 181 221 355 361 42 35 104 77 112 77 3
0 26 15 52 34 61 44 363 196 391 196 21 0 166 78 185 100 11 12 34 28 52 35
74 31 275 260 375 430 24 40 58 114 58 126 0 5 9 27 19 48 11 20 32 75 46 122
15 46 31 92 36 101 12 23 12 433 0 456 -5 9 -19 49 -31 87 -19 63 -58 162 -81
207 -5 10 -9 23 -9 30 0 6 -10 28 -23 47 -13 20 -50 77 -82 126 -32 50 -69
103 -84 119 -71 80 -199 200 -226 211 -17 7 -39 23 -50 35 -18 20 -168 100
-188 100 -18 0 -298 135 -357 173 -20 12 -51 31 -69 42 -19 11 -57 38 -85 60
-28 22 -76 59 -107 83 -78 59 -229 217 -275 288 -22 32 -44 64 -51 69 -34 30
-123 251 -123 306 0 14 -7 43 -15 63 -13 30 -15 74 -12 239 1 111 9 231 15
267 27 135 44 217 59 270 8 30 20 73 26 95 6 22 21 63 33 90 12 28 31 75 43
105 12 30 26 64 31 75 5 11 11 31 13 45 3 14 13 50 22 80 26 86 37 213 30 363
-8 164 -10 180 -46 275 -5 13 -9 37 -9 55 0 18 -6 41 -14 52 -7 11 -17 31 -21
45 -16 57 -121 250 -170 315 -129 170 -250 268 -448 364 -139 67 -153 72 -207
82 -25 4 -63 12 -85 19 -98 28 -141 32 -315 33 -164 1 -194 -2 -265 -22 -44
-13 -91 -25 -105 -28 -14 -2 -34 -8 -45 -13 -240 -105 -338 -134 -656 -194
-114 -21 -423 -22 -489 -2 -25 8 -76 21 -114 30 -85 20 -209 75 -254 113 -19
15 -41 31 -50 34 -49 18 -286 254 -336 334 -11 17 -37 51 -58 76 -21 25 -38
49 -38 54 0 4 -12 23 -26 42 -40 53 -86 139 -148 278 -32 72 -69 153 -82 182
-13 28 -24 56 -24 61 0 5 -17 29 -39 53 -21 24 -41 54 -45 67 -11 32 -210 229
-277 274 -119 79 -219 137 -270 156 -30 11 -96 36 -148 56 -51 20 -102 36
-112 36 -10 0 -21 5 -24 10 -8 13 -434 13 -455 0z m455 -4291 c154 -13 223
-24 315 -48 47 -13 104 -27 128 -32 24 -5 64 -16 89 -24 68 -23 296 -115 308
-124 5 -5 48 -28 95 -52 103 -53 251 -147 344 -220 132 -103 334 -301 411
-403 17 -22 47 -61 68 -88 37 -49 147 -215 147 -223 0 -2 21 -44 48 -92 62
-116 140 -299 171 -406 26 -89 79 -320 91 -402 29 -186 24 -586 -8 -709 -6
-22 -9 -43 -7 -47 3 -3 -7 -51 -21 -105 -14 -54 -31 -126 -39 -159 -21 -98
-85 -257 -167 -420 -28 -55 -60 -118 -71 -140 -11 -22 -28 -51 -39 -65 -10
-14 -39 -55 -63 -93 -104 -157 -337 -405 -499 -530 -102 -80 -236 -172 -290
-199 -22 -11 -48 -26 -56 -33 -15 -12 -212 -101 -330 -149 -72 -29 -114 -42
-175 -56 -22 -4 -85 -20 -140 -34 -55 -14 -114 -26 -130 -26 -17 0 -45 -4 -62
-9 -89 -26 -483 -33 -618 -11 -38 6 -101 15 -140 20 -38 5 -104 19 -145 30
-41 12 -95 25 -120 30 -73 13 -366 130 -463 185 -23 13 -64 36 -91 50 -114 62
-346 233 -426 314 -19 20 -48 48 -65 63 -200 180 -426 510 -543 793 -47 114
-91 232 -97 260 -4 17 -17 73 -31 126 -13 53 -29 130 -34 170 -6 41 -15 106
-21 144 -14 91 -14 440 0 530 5 39 15 104 21 145 6 41 21 109 32 150 11 41 24
93 29 115 8 39 26 93 69 205 23 60 23 61 74 172 20 43 36 81 36 86 0 5 9 21
20 35 11 14 32 48 47 75 173 316 552 695 872 873 114 63 211 112 266 135 138
58 273 106 315 114 25 5 83 18 130 30 116 30 178 39 365 53 162 13 221 12 400
-4z"/>
</g>
</svg>
