<?xml version="1.0" standalone="no"?>
<!DOCTYPE svg PUBLIC "-//W3C//DTD SVG 20010904//EN"
 "http://www.w3.org/TR/2001/REC-SVG-20010904/DTD/svg10.dtd">
<svg version="1.0" xmlns="http://www.w3.org/2000/svg"
 width="1956.000000pt" height="1956.000000pt" viewBox="0 0 1956.000000 1956.000000"
 preserveAspectRatio="xMidYMid meet">
<metadata>
Created by potrace 1.15, written by Peter Selinger 2001-2017
</metadata>
<g transform="translate(0.000000,1956.000000) scale(0.100000,-0.100000)"
fill="#000000" stroke="none">
<path d="M9445 15024 c-22 -2 -114 -11 -205 -19 -1597 -151 -3057 -1041 -3918
-2391 -445 -697 -708 -1448 -804 -2294 -32 -282 -32 -798 0 -1080 31 -277 84
-570 143 -790 246 -917 703 -1714 1364 -2375 544 -546 1161 -943 1884 -1214
409 -153 820 -250 1291 -303 282 -32 798 -32 1080 0 471 53 882 150 1291 303
721 270 1338 667 1879 1209 542 541 939 1159 1209 1879 153 410 250 821 303
1291 30 263 32 788 5 1040 -82 757 -290 1423 -637 2046 -714 1281 -1908 2195
-3325 2548 -425 105 -752 146 -1210 151 -170 1 -328 1 -350 -1z m816 -1282
c81 -27 193 -48 325 -61 76 -7 117 -17 166 -39 37 -17 108 -37 164 -46 71 -12
114 -26 158 -51 34 -18 87 -38 118 -44 59 -10 106 -30 146 -62 12 -9 41 -20
63 -24 22 -4 62 -22 89 -40 27 -18 73 -41 102 -50 29 -10 64 -28 78 -40 14
-13 55 -36 91 -53 36 -16 73 -39 81 -51 8 -11 32 -28 54 -37 21 -9 54 -29 72
-45 18 -16 49 -37 70 -48 20 -10 48 -31 62 -46 14 -15 41 -35 61 -45 19 -10
42 -26 50 -36 8 -10 32 -30 54 -46 137 -100 446 -412 615 -622 25 -31 61 -76
81 -100 20 -24 46 -61 59 -82 13 -22 36 -54 52 -72 15 -18 28 -39 28 -46 0 -7
16 -34 36 -60 19 -26 46 -70 59 -99 12 -29 32 -60 43 -71 12 -10 33 -49 47
-86 14 -38 36 -80 49 -95 13 -15 31 -54 40 -87 9 -33 29 -76 45 -96 19 -24 34
-63 45 -111 9 -40 30 -98 46 -127 19 -32 37 -85 46 -135 9 -46 29 -111 45
-145 20 -46 32 -95 43 -181 8 -65 25 -154 37 -198 51 -190 50 -171 50 -695 1
-471 0 -499 -20 -570 -37 -132 -60 -244 -71 -337 -7 -61 -19 -111 -39 -155
-16 -35 -37 -102 -45 -148 -10 -51 -28 -105 -47 -138 -16 -29 -37 -84 -46
-123 -8 -38 -28 -88 -44 -112 -16 -23 -36 -65 -44 -94 -8 -28 -26 -65 -40 -81
-13 -16 -35 -59 -49 -96 -13 -37 -33 -77 -44 -89 -11 -12 -33 -49 -50 -82 -16
-33 -39 -68 -50 -78 -11 -10 -26 -33 -33 -50 -13 -34 -112 -180 -141 -209 -17
-17 -48 -57 -118 -154 -19 -26 -57 -73 -84 -103 -141 -161 -151 -165 -185 -68
-36 101 -59 180 -65 218 -4 20 -19 56 -35 80 -16 24 -37 71 -46 103 -10 33
-30 77 -46 99 -15 21 -36 62 -45 90 -9 29 -30 67 -46 85 -16 19 -40 57 -54 85
-25 55 -59 103 -134 191 -25 29 -65 77 -90 106 -158 187 -291 322 -411 415
-109 85 -170 150 -162 171 7 19 40 60 170 209 43 49 92 121 123 180 70 132 70
133 108 184 18 25 35 56 38 70 4 14 24 59 45 98 23 43 46 104 55 148 9 42 29
105 45 141 24 52 32 88 39 177 5 62 15 173 21 247 12 139 10 224 -10 490 -13
167 -31 256 -61 307 -10 18 -26 71 -36 118 -11 58 -28 104 -51 142 -18 31 -36
67 -39 80 -4 13 -24 50 -45 84 -22 33 -39 62 -39 65 0 3 -16 30 -35 60 -20 30
-46 77 -59 104 -13 26 -43 72 -67 100 -127 151 -282 321 -320 350 -24 19 -65
52 -90 74 -115 103 -232 185 -317 223 -30 13 -69 35 -88 49 -18 14 -56 34 -85
45 -28 11 -66 31 -84 44 -17 14 -69 34 -115 46 -46 11 -104 31 -129 43 -53 27
-122 42 -236 51 -44 3 -114 15 -155 27 -65 19 -101 22 -275 22 -175 0 -209 -2
-275 -21 -41 -12 -113 -24 -160 -28 -123 -9 -189 -24 -237 -51 -23 -13 -75
-32 -115 -40 -45 -10 -98 -31 -139 -55 -36 -21 -70 -39 -76 -39 -6 0 -35 -16
-64 -36 -30 -20 -71 -42 -92 -50 -40 -14 -159 -93 -263 -172 -74 -57 -274
-233 -274 -241 0 -3 -15 -22 -33 -42 -32 -35 -112 -131 -183 -218 -19 -25 -47
-68 -61 -95 -14 -28 -37 -66 -50 -84 -14 -19 -33 -55 -43 -82 -10 -27 -31 -65
-48 -87 -17 -21 -38 -63 -46 -93 -9 -30 -27 -71 -40 -91 -26 -39 -40 -84 -51
-164 -4 -27 -20 -79 -35 -116 -46 -103 -52 -172 -52 -544 0 -371 6 -432 52
-547 16 -41 34 -105 40 -143 7 -44 26 -99 50 -149 22 -44 40 -87 40 -96 0 -9
20 -47 45 -84 25 -38 45 -75 45 -81 0 -7 16 -36 36 -65 19 -28 44 -72 55 -97
20 -48 44 -78 187 -239 94 -107 105 -131 78 -169 -8 -11 -60 -58 -116 -105
-185 -154 -269 -231 -319 -294 -27 -33 -75 -90 -105 -126 -140 -165 -222 -278
-257 -350 -12 -25 -39 -68 -60 -96 -21 -29 -41 -65 -45 -80 -4 -16 -17 -42
-29 -59 -31 -43 -51 -85 -60 -125 -4 -19 -24 -69 -45 -110 -22 -45 -40 -97
-44 -130 -8 -65 -42 -165 -62 -181 -10 -8 -21 -9 -34 -3 -24 11 -205 216 -226
255 -8 16 -19 29 -23 29 -11 0 -102 119 -144 189 -16 25 -37 55 -47 66 -10 11
-25 34 -33 50 -8 17 -31 48 -50 69 -20 22 -43 60 -53 85 -10 25 -30 62 -45 81
-16 19 -35 57 -43 83 -8 26 -28 70 -46 97 -18 27 -38 71 -46 97 -8 26 -26 65
-40 86 -14 21 -35 75 -46 120 -11 45 -33 102 -48 127 -21 33 -34 74 -48 156
-12 65 -30 131 -46 161 -27 54 -46 146 -46 228 0 28 -12 97 -26 155 -58 235
-55 205 -52 650 l3 415 27 85 c26 85 40 162 57 321 7 58 19 107 39 150 17 36
35 98 41 139 14 93 28 135 57 180 13 19 30 69 39 110 9 44 28 93 45 120 17 26
36 68 44 94 8 25 28 68 45 95 17 26 38 71 46 98 8 28 29 68 46 89 17 21 40 57
51 79 10 22 33 63 51 92 18 28 40 64 49 80 10 15 42 62 72 103 31 41 67 92 82
114 86 128 335 398 520 564 150 136 183 163 322 264 155 113 188 136 221 153
19 9 52 30 74 46 22 16 45 29 52 29 6 0 36 17 66 39 30 21 77 46 104 55 28 9
70 30 94 46 24 17 63 35 85 41 23 6 67 26 99 45 33 19 89 40 128 49 39 8 93
28 122 44 35 20 82 35 144 45 51 9 124 30 163 47 55 23 102 33 198 44 148 17
219 29 283 50 91 31 141 33 549 31 399 -2 418 -3 481 -24z m-267 -2311 c83 -8
111 -15 170 -45 39 -19 87 -42 106 -49 36 -14 152 -95 234 -161 51 -43 144
-154 171 -206 10 -19 31 -51 46 -70 15 -19 33 -55 39 -80 7 -25 28 -78 48
-118 33 -70 35 -79 41 -214 3 -77 3 -203 -1 -280 -6 -135 -8 -143 -41 -208
-20 -36 -39 -83 -42 -104 -4 -21 -23 -61 -42 -89 -19 -29 -43 -68 -53 -87 -20
-39 -178 -203 -255 -266 -27 -22 -70 -48 -95 -58 -25 -10 -54 -26 -65 -36 -28
-27 -81 -46 -145 -54 -30 -4 -59 -11 -65 -15 -5 -4 -46 -18 -90 -32 -68 -20
-100 -24 -210 -23 -122 1 -136 3 -238 37 -59 21 -121 37 -138 37 -32 0 -75 19
-124 55 -16 12 -46 28 -65 35 -96 36 -315 252 -361 354 -10 24 -32 59 -48 80
-19 23 -35 62 -45 105 -9 37 -30 97 -48 132 l-33 64 0 215 0 215 32 65 c17 36
39 94 48 130 9 36 34 92 56 126 21 33 39 65 39 70 1 18 122 160 183 214 84 74
189 148 235 166 20 8 69 31 108 50 62 31 84 37 185 45 63 5 123 11 134 13 25
6 199 -2 329 -13z m31 -3455 c33 -7 81 -23 108 -34 26 -12 85 -28 132 -36 86
-15 112 -25 153 -57 13 -10 49 -25 80 -34 31 -9 72 -28 90 -41 17 -14 47 -30
66 -37 39 -13 208 -150 300 -242 107 -107 214 -251 267 -359 16 -34 40 -79 53
-100 14 -22 27 -56 31 -75 3 -20 22 -67 41 -106 25 -52 36 -91 43 -155 5 -47
17 -141 25 -210 9 -69 18 -134 19 -145 1 -11 6 -25 10 -32 4 -6 8 -37 8 -69 2
-65 6 -61 -101 -123 -36 -21 -94 -46 -130 -55 -36 -9 -81 -28 -100 -41 -48
-33 -75 -42 -165 -54 -53 -8 -96 -21 -134 -42 -45 -25 -78 -33 -171 -44 -142
-18 -199 -29 -268 -55 -78 -29 -251 -40 -640 -40 -365 0 -538 11 -616 41 -67
25 -126 37 -266 53 -94 12 -126 20 -172 45 -41 22 -80 34 -140 42 -64 9 -99
20 -153 49 -38 21 -94 43 -124 49 -54 11 -187 90 -198 117 -9 25 -10 49 -1 84
5 19 15 130 22 245 13 204 14 212 44 270 18 33 34 76 38 95 14 80 36 138 59
160 13 13 32 46 41 74 9 28 28 66 43 84 14 19 37 51 51 72 59 90 155 203 227
268 81 73 249 202 264 202 4 0 27 13 51 29 24 16 67 36 95 44 29 9 73 30 99
47 32 23 65 35 112 42 37 6 99 21 137 35 39 13 95 30 125 38 77 18 464 19 545
1z"/>
</g>
</svg>
