<?xml version="1.0" standalone="no"?>
<!DOCTYPE svg PUBLIC "-//W3C//DTD SVG 20010904//EN"
 "http://www.w3.org/TR/2001/REC-SVG-20010904/DTD/svg10.dtd">
<svg version="1.0" xmlns="http://www.w3.org/2000/svg"
 width="1956.000000pt" height="1956.000000pt" viewBox="0 0 1956.000000 1956.000000"
 preserveAspectRatio="xMidYMid meet">
<metadata>
Created by potrace 1.15, written by Peter Selinger 2001-2017
</metadata>
<g transform="translate(0.000000,1956.000000) scale(0.100000,-0.100000)"
fill="#000000" stroke="none">
<path d="M6758 15035 c-64 -11 -91 -22 -150 -60 -40 -27 -102 -75 -138 -109
-91 -85 -432 -411 -561 -536 -59 -58 -174 -169 -256 -247 -81 -78 -198 -190
-260 -250 -224 -217 -520 -501 -598 -573 -83 -77 -639 -609 -748 -717 -56 -54
-97 -100 -97 -107 0 -5 -18 -35 -40 -68 -22 -33 -40 -68 -40 -78 0 -10 -14
-58 -31 -107 -30 -82 -32 -100 -36 -251 l-5 -163 35 -72 c20 -40 39 -85 43
-102 3 -16 17 -41 29 -55 12 -14 32 -41 43 -61 21 -34 133 -147 827 -824 163
-159 411 -402 550 -540 252 -249 875 -860 1090 -1070 157 -153 191 -176 322
-220 67 -22 94 -26 150 -22 89 6 214 52 283 103 59 44 140 127 140 143 0 6 12
21 26 34 20 19 32 48 50 123 13 55 24 114 24 132 0 55 -40 216 -60 242 -11 14
-35 48 -54 75 -18 28 -80 94 -137 149 -57 54 -285 277 -507 495 -560 550 -904
886 -973 951 -34 32 -59 63 -59 75 0 20 1 20 4452 17 l4452 -2 84 21 c154 38
277 143 363 309 l44 85 0 125 0 125 -38 68 c-20 38 -37 74 -37 81 0 7 -15 27
-32 44 -18 17 -42 41 -53 52 -53 55 -108 91 -191 129 l-92 41 -4536 0 c-4205
0 -4537 1 -4543 16 -4 12 9 31 43 62 27 25 117 111 200 191 83 80 247 238 365
351 117 113 234 225 259 250 26 25 86 83 135 130 49 47 155 148 235 225 80 77
235 225 345 330 110 104 210 207 223 228 12 22 33 52 46 68 26 31 66 179 66
246 0 70 -49 234 -80 269 -15 18 -31 41 -34 51 -6 18 -68 72 -161 140 -39 29
-69 41 -135 55 -99 20 -137 21 -242 3z"/>
<path d="M12295 8837 c-53 -19 -113 -49 -145 -73 -57 -42 -130 -117 -130 -133
0 -5 -13 -22 -29 -37 -23 -23 -35 -51 -55 -131 -14 -56 -26 -116 -26 -133 0
-57 50 -234 74 -260 12 -14 41 -50 64 -81 24 -31 63 -74 87 -96 40 -35 550
-534 1041 -1018 224 -220 392 -383 467 -452 37 -34 57 -60 57 -75 l0 -23
-4192 3 -4193 3 -94 -22 c-66 -16 -104 -31 -125 -49 -17 -15 -45 -34 -61 -43
-42 -21 -131 -126 -161 -189 -14 -29 -33 -66 -42 -83 -14 -24 -17 -56 -17
-155 l0 -125 38 -68 c20 -38 37 -74 37 -81 0 -7 15 -27 33 -44 17 -17 41 -41
52 -52 53 -55 108 -91 191 -129 l92 -41 4286 0 c4250 0 4286 0 4286 -20 0 -10
-19 -36 -42 -57 -24 -21 -61 -56 -84 -78 -111 -106 -430 -415 -556 -537 -78
-76 -143 -138 -145 -138 -3 0 -53 -48 -113 -108 -59 -59 -217 -210 -351 -337
-328 -311 -508 -491 -545 -546 -35 -51 -71 -163 -80 -255 -6 -60 -4 -72 48
-241 5 -18 18 -39 27 -45 10 -7 25 -26 34 -43 24 -45 124 -131 209 -180 15 -8
67 -22 115 -31 75 -13 102 -14 178 -3 109 15 125 20 195 67 75 50 258 219 625
577 62 61 195 189 295 285 101 96 218 209 260 250 118 115 505 486 595 570 44
41 136 129 205 195 69 66 221 213 339 325 298 285 318 306 337 342 9 18 27 47
40 63 12 17 30 57 39 90 9 33 28 94 42 135 22 66 26 93 27 225 l1 150 -37 75
c-21 41 -38 83 -38 92 0 10 -13 32 -29 50 -15 18 -35 47 -44 64 -8 16 -212
223 -453 460 -240 236 -537 528 -660 649 -123 121 -353 347 -511 502 -159 155
-389 381 -513 503 -407 400 -434 425 -497 471 -34 26 -78 50 -98 53 -19 4 -54
16 -77 26 -66 30 -162 25 -273 -13z"/>
</g>
</svg>
