<svg xmlns="http://www.w3.org/2000/svg" height="800pt" version="1.1" viewBox="-13 0 800 800.00092" width="800pt">
<g id="surface1">
<path d="M 724 185.828125 C 724 172.039062 712.828125 160.855469 699.035156 160.855469 L 24.972656 160.855469 C 11.1875 160.855469 0 172.042969 0 185.828125 L 0 575.191406 C 0 588.972656 11.1875 600.164062 24.972656 600.164062 L 64.054688 600.164062 L 64.054688 256.679688 C 64.054688 242.898438 75.238281 231.710938 89.015625 231.710938 L 724 231.710938 Z M 724 185.828125 " style=" stroke:none;fill-rule:nonzero;fill:rgb(0%,0%,0%);fill-opacity:1;" />
<path d="M 444.25 437.519531 C 430.816406 437.519531 419.898438 448.445312 419.898438 461.871094 C 419.898438 475.289062 430.816406 486.207031 444.25 486.207031 C 457.667969 486.207031 468.605469 475.289062 468.605469 461.871094 C 468.605469 448.4375 457.667969 437.519531 444.25 437.519531 Z M 444.25 437.519531 " style=" stroke:none;fill-rule:nonzero;fill:rgb(0%,0%,0%);fill-opacity:1;" />
<path d="M 749.53125 281.640625 L 138.949219 281.640625 C 125.167969 281.640625 113.984375 292.824219 113.984375 306.613281 L 113.984375 617.121094 C 113.984375 630.910156 125.167969 642.085938 138.949219 642.085938 L 749.53125 642.085938 C 763.324219 642.085938 774.496094 630.910156 774.496094 617.121094 L 774.496094 306.613281 C 774.496094 292.824219 763.324219 281.640625 749.53125 281.640625 Z M 729.742188 528.71875 C 729.742188 542.519531 718.574219 553.6875 704.769531 553.6875 C 691.292969 553.6875 680.324219 564.65625 680.324219 578.140625 C 680.324219 591.941406 669.152344 603.101562 655.355469 603.101562 L 233.128906 603.101562 C 219.347656 603.101562 208.160156 591.941406 208.160156 578.140625 C 208.160156 564.65625 197.191406 553.6875 183.710938 553.6875 C 169.925781 553.6875 158.742188 542.519531 158.742188 528.71875 L 158.742188 395.015625 C 158.742188 381.21875 169.925781 370.046875 183.710938 370.046875 C 197.191406 370.046875 208.160156 359.078125 208.160156 345.597656 C 208.160156 331.792969 219.347656 320.625 233.128906 320.625 L 655.355469 320.625 C 669.152344 320.625 680.324219 331.792969 680.324219 345.597656 C 680.324219 359.078125 691.289062 370.046875 704.769531 370.046875 C 718.574219 370.046875 729.742188 381.21875 729.742188 395.015625 Z M 729.742188 528.71875 " style=" stroke:none;fill-rule:nonzero;fill:rgb(0%,0%,0%);fill-opacity:1;" />
<path d="M 634.699219 370.558594 L 253.785156 370.558594 C 246.292969 391.519531 229.648438 408.179688 208.675781 415.671875 L 208.675781 508.0625 C 229.648438 515.554688 246.292969 532.21875 253.785156 553.171875 L 634.699219 553.171875 C 642.191406 532.21875 658.847656 515.554688 679.808594 508.0625 L 679.808594 415.671875 C 658.847656 408.179688 642.191406 391.519531 634.699219 370.558594 Z M 444.25 536.140625 C 403.292969 536.140625 369.964844 502.824219 369.964844 461.871094 C 369.964844 420.914062 403.292969 387.589844 444.25 387.589844 C 485.214844 387.589844 518.535156 420.914062 518.535156 461.871094 C 518.535156 502.824219 485.210938 536.140625 444.25 536.140625 Z M 444.25 536.140625 " style=" stroke:none;fill-rule:nonzero;fill:rgb(0%,0%,0%);fill-opacity:1;" />
<path d="M 176.464844 120.285156 L 582.074219 120.285156 C 591.777344 120.285156 600.523438 114.445312 604.234375 105.480469 C 607.945312 96.511719 605.894531 86.199219 599.035156 79.335938 L 526.730469 7.027344 C 517.359375 -2.34375 502.171875 -2.34375 492.804688 7.027344 C 483.433594 16.394531 483.433594 31.582031 492.804688 40.953125 L 524.164062 72.3125 L 176.464844 72.3125 C 163.21875 72.3125 152.476562 83.054688 152.476562 96.300781 C 152.476562 109.542969 163.21875 120.285156 176.464844 120.285156 Z M 176.464844 120.285156 " style=" stroke:none;fill-rule:nonzero;fill:rgb(0%,0%,0%);fill-opacity:1;" />
<path d="M 582.074219 679.710938 L 176.464844 679.710938 C 166.757812 679.710938 158.011719 685.5625 154.300781 694.527344 C 150.589844 703.488281 152.640625 713.800781 159.503906 720.660156 L 231.816406 792.972656 C 236.5 797.65625 242.636719 800 248.78125 800 C 254.914062 800 261.054688 797.65625 265.734375 792.972656 C 275.101562 783.609375 275.101562 768.421875 265.734375 759.054688 L 234.375 727.691406 L 582.074219 727.691406 C 595.316406 727.691406 606.058594 716.949219 606.058594 703.707031 C 606.058594 690.453125 595.316406 679.710938 582.074219 679.710938 Z M 582.074219 679.710938 " style=" stroke:none;fill-rule:nonzero;fill:rgb(0%,0%,0%);fill-opacity:1;" />
</g>
</svg>